<svg width="1156" height="373" xmlns="http://www.w3.org/2000/svg" xmlns:xlink="http://www.w3.org/1999/xlink" xml:space="preserve" overflow="hidden"><defs><clipPath id="clip0"><rect x="516" y="275" width="1156" height="373"/></clipPath></defs><g clip-path="url(#clip0)" transform="translate(-516 -275)"><path d="M516 648 1672 648 1672 275 516 275 516 648Z" fill="#333399" fill-rule="evenodd"/><text fill="#FFFFFF" font-family="Adobe Hebrew,Adobe Hebrew_MSFontService,sans-serif" font-weight="400" font-size="89" transform="matrix(1 0 0 1 1225.32 470)">ULOUS</text><text fill="#FFFFFF" font-family="Adobe Hebrew,Adobe Hebrew_MSFontService,sans-serif" font-weight="400" font-size="110" transform="matrix(1 0 0 1 1034.9 471)">FAB</text><text fill="#E8B900" font-family="Adobe Hebrew,Adobe Hebrew_MSFontService,sans-serif" font-weight="400" font-size="53" transform="matrix(1 0 0 1 1070.77 534)">eFPGAs</text><text fill="#E8B900" font-family="Adobe Hebrew,Adobe Hebrew_MSFontService,sans-serif" font-weight="400" font-size="53" transform="matrix(1 0 0 1 1264.7 534)">made</text><text fill="#E8B900" font-family="Adobe Hebrew,Adobe Hebrew_MSFontService,sans-serif" font-weight="400" font-size="53" transform="matrix(1 0 0 1 1399.31 534)">easy</text><path d="M712 534 712 553 731 553 731 534Z" fill="#E8B900" fill-rule="evenodd"/><path d="M877 553 731 553 731 534 877 534Z" fill="#E8B900" fill-rule="evenodd"/><path d="M877 553 896 553 896 534 877 534Z" fill="#E8B900" fill-rule="evenodd"/><path d="M896 388 896 534 877 534 877 388Z" fill="#E8B900" fill-rule="evenodd"/><path d="M896 388 896 369 877 369 877 388Z" fill="#E8B900" fill-rule="evenodd"/><path d="M731 369 877 369 877 388 731 388Z" fill="#E8B900" fill-rule="evenodd"/><path d="M731 369 712 369 712 388 731 388Z" fill="#E8B900" fill-rule="evenodd"/><path d="M712 388 731 388 731 534 712 534Z" fill="#E8B900" fill-rule="evenodd"/><path d="M917 408 917 390 948 390 948 408Z" fill="#E8B900" fill-rule="evenodd"/><path d="M917 533 917 514 948 514 948 533Z" fill="#E8B900" fill-rule="evenodd"/><path d="M917 491 917 472 948 472 948 491Z" fill="#E8B900" fill-rule="evenodd"/><path d="M917 450 917 432 948 432 948 450Z" fill="#E8B900" fill-rule="evenodd"/><path d="M659 408 659 390 690 390 690 408Z" fill="#E8B900" fill-rule="evenodd"/><path d="M659 533 659 514 690 514 690 533Z" fill="#E8B900" fill-rule="evenodd"/><path d="M659 491 659 472 690 472 690 491Z" fill="#E8B900" fill-rule="evenodd"/><path d="M659 450 659 432 690 432 690 450Z" fill="#E8B900" fill-rule="evenodd"/><path d="M857 317 875 317 875 349 857 349Z" fill="#E8B900" fill-rule="evenodd"/><path d="M732 317 751 317 751 349 732 349Z" fill="#E8B900" fill-rule="evenodd"/><path d="M773 317 792 317 792 349 773 349Z" fill="#E8B900" fill-rule="evenodd"/><path d="M815 317 834 317 834 349 815 349Z" fill="#E8B900" fill-rule="evenodd"/><path d="M739 417 760 417 760 397 739 397 739 417Z" fill="#FFFFFF" fill-rule="evenodd"/><path d="M766 417 787 417 787 397 766 397 766 417Z" fill="#FFFFFF" fill-rule="evenodd"/><path d="M739 526 814 526 814 451 739 451 739 526Z" fill="#FFFFFF" fill-rule="evenodd"/><path d="M857 575 875 575 875 606 857 606Z" fill="#E8B900" fill-rule="evenodd"/><path d="M732 575 751 575 751 606 732 606Z" fill="#E8B900" fill-rule="evenodd"/><path d="M773 575 792 575 792 606 773 606Z" fill="#E8B900" fill-rule="evenodd"/><path d="M815 575 834 575 834 606 815 606Z" fill="#E8B900" fill-rule="evenodd"/><path d="M794 417 815 417 815 397 794 397 794 417Z" fill="#FFFFFF" fill-rule="evenodd"/><path d="M739 445.001 760 445.001 760 424 739 424 739 445.001Z" fill="#FFFFFF" fill-rule="evenodd"/><path d="M766 445.001 787 445.001 787 424 766 424 766 445.001Z" fill="#FFFFFF" fill-rule="evenodd"/><path d="M794 445.001 815 445.001 815 424 794 424 794 445.001Z" fill="#FFFFFF" fill-rule="evenodd"/><path d="M868 397 848 397 848 417 868 417 868 397Z" fill="#FFFFFF" fill-rule="evenodd"/><path d="M868 424 848 424 848 445.001 868 445.001 868 424Z" fill="#FFFFFF" fill-rule="evenodd"/><path d="M868 451 848 451 848 472 868 472 868 451Z" fill="#FFFFFF" fill-rule="evenodd"/><path d="M868 478 848 478 848 499 868 499 868 478Z" fill="#FFFFFF" fill-rule="evenodd"/><path d="M868 505 848 505 848 526 868 526 868 505Z" fill="#FFFFFF" fill-rule="evenodd"/><path d="M841 397 820 397 820 417 841 417 841 397Z" fill="#FFFFFF" fill-rule="evenodd"/><path d="M841 424 820 424 820 445.001 841 445.001 841 424Z" fill="#FFFFFF" fill-rule="evenodd"/><path d="M841 451 820 451 820 472 841 472 841 451Z" fill="#FFFFFF" fill-rule="evenodd"/><path d="M841 505 820 505 820 526 841 526 841 505Z" fill="#FFFFFF" fill-rule="evenodd"/><path d="M841 478 820 478 820 499 841 499 841 478Z" fill="#FFFFFF" fill-rule="evenodd"/></g></svg>