<?xml version="1.0" encoding="UTF-8" standalone="no"?>
<svg
   xmlns:dc="http://purl.org/dc/elements/1.1/"
   xmlns:cc="http://creativecommons.org/ns#"
   xmlns:rdf="http://www.w3.org/1999/02/22-rdf-syntax-ns#"
   xmlns:svg="http://www.w3.org/2000/svg"
   xmlns="http://www.w3.org/2000/svg"
   id="svg121"
   height="29.549999mm"
   width="69.239998mm"
   version="1.0">
  <metadata
     id="metadata125">
    <rdf:RDF>
      <cc:Work
         rdf:about="">
        <dc:format>image/svg+xml</dc:format>
        <dc:type
           rdf:resource="http://purl.org/dc/dcmitype/StillImage" />
      </cc:Work>
    </rdf:RDF>
  </metadata>
  <defs
     id="defs3">
    <pattern
       y="0"
       x="0"
       height="6"
       width="6"
       patternUnits="userSpaceOnUse"
       id="EMFhbasepattern" />
  </defs>
  <path
     id="path5"
     d="  M 0,108.16341   L 258.24815,108.16341   L 258.24815,0   L 0,0   L 0,108.16341   z "
     style="fill:#333399;fill-rule:evenodd;fill-opacity:1;stroke:none;" />
  <path
     id="path7"
     d="  M 30.080949,78.082464   L 78.082464,78.082464   L 78.082464,30.080949   L 30.080949,30.080949   L 30.080949,78.082464   z "
     style="fill:#333399;fill-rule:evenodd;fill-opacity:1;stroke:none;" />
  <path
     id="path9"
     d="  M 27.360863,75.362378   L 27.360863,80.80255   L 32.801035,80.80255   L 32.801035,75.362378   z "
     style="fill:#e8b900;fill-rule:evenodd;fill-opacity:1;stroke:none;" />
  <path
     id="path11"
     d="  M 75.362378,80.80255   L 32.801035,80.80255   L 32.801035,75.362378   L 75.362378,75.362378   z "
     style="fill:#e8b900;fill-rule:evenodd;fill-opacity:1;stroke:none;" />
  <path
     id="path13"
     d="  M 75.362378,80.80255   L 80.80255,80.80255   L 80.80255,75.362378   L 75.362378,75.362378   z "
     style="fill:#e8b900;fill-rule:evenodd;fill-opacity:1;stroke:none;" />
  <path
     id="path15"
     d="  M 80.80255,32.801035   L 80.80255,75.362378   L 75.362378,75.362378   L 75.362378,32.801035   z "
     style="fill:#e8b900;fill-rule:evenodd;fill-opacity:1;stroke:none;" />
  <path
     id="path17"
     d="  M 80.80255,32.801035   L 80.80255,27.360863   L 75.362378,27.360863   L 75.362378,32.801035   z "
     style="fill:#e8b900;fill-rule:evenodd;fill-opacity:1;stroke:none;" />
  <path
     id="path19"
     d="  M 32.801035,27.360863   L 75.362378,27.360863   L 75.362378,32.801035   L 32.801035,32.801035   z "
     style="fill:#e8b900;fill-rule:evenodd;fill-opacity:1;stroke:none;" />
  <path
     id="path21"
     d="  M 32.801035,27.360863   L 27.360863,27.360863   L 27.360863,32.801035   L 32.801035,32.801035   z "
     style="fill:#e8b900;fill-rule:evenodd;fill-opacity:1;stroke:none;" />
  <path
     id="path23"
     d="  M 27.360863,32.801035   L 32.801035,32.801035   L 32.801035,75.362378   L 27.360863,75.362378   z "
     style="fill:#e8b900;fill-rule:evenodd;fill-opacity:1;stroke:none;" />
  <path
     id="path25"
     d="  M 87.042747,38.721222   L 87.042747,33.28105   L 96.163035,33.28105   L 96.163035,38.721222   z "
     style="fill:#e8b900;fill-rule:evenodd;fill-opacity:1;stroke:none;" />
  <path
     id="path27"
     d="  M 87.042747,74.882363   L 87.042747,69.442191   L 96.163035,69.442191   L 96.163035,74.882363   z "
     style="fill:#e8b900;fill-rule:evenodd;fill-opacity:1;stroke:none;" />
  <path
     id="path29"
     d="  M 87.042747,62.881984   L 87.042747,57.441813   L 96.163035,57.441813   L 96.163035,62.881984   z "
     style="fill:#e8b900;fill-rule:evenodd;fill-opacity:1;stroke:none;" />
  <path
     id="path31"
     d="  M 87.042747,50.721601   L 87.042747,45.281429   L 96.163035,45.281429   L 96.163035,50.721601   z "
     style="fill:#e8b900;fill-rule:evenodd;fill-opacity:1;stroke:none;" />
  <path
     id="path33"
     d="  M 12.000379,38.721222   L 12.000379,33.28105   L 21.120667,33.28105   L 21.120667,38.721222   z "
     style="fill:#e8b900;fill-rule:evenodd;fill-opacity:1;stroke:none;" />
  <path
     id="path35"
     d="  M 12.000379,74.882363   L 12.000379,69.442191   L 21.120667,69.442191   L 21.120667,74.882363   z "
     style="fill:#e8b900;fill-rule:evenodd;fill-opacity:1;stroke:none;" />
  <path
     id="path37"
     d="  M 12.000379,62.881984   L 12.000379,57.441813   L 21.120667,57.441813   L 21.120667,62.881984   z "
     style="fill:#e8b900;fill-rule:evenodd;fill-opacity:1;stroke:none;" />
  <path
     id="path39"
     d="  M 12.000379,50.721601   L 12.000379,45.281429   L 21.120667,45.281429   L 21.120667,50.721601   z "
     style="fill:#e8b900;fill-rule:evenodd;fill-opacity:1;stroke:none;" />
  <path
     id="path41"
     d="  M 69.442191,12.000379   L 74.882363,12.000379   L 74.882363,21.120667   L 69.442191,21.120667   z "
     style="fill:#e8b900;fill-rule:evenodd;fill-opacity:1;stroke:none;" />
  <path
     id="path43"
     d="  M 33.28105,12.000379   L 38.721222,12.000379   L 38.721222,21.120667   L 33.28105,21.120667   z "
     style="fill:#e8b900;fill-rule:evenodd;fill-opacity:1;stroke:none;" />
  <path
     id="path45"
     d="  M 45.441434,12.000379   L 50.881606,12.000379   L 50.881606,21.120667   L 45.441434,21.120667   z "
     style="fill:#e8b900;fill-rule:evenodd;fill-opacity:1;stroke:none;" />
  <path
     id="path47"
     d="  M 57.441813,12.000379   L 62.881984,12.000379   L 62.881984,21.120667   L 57.441813,21.120667   z "
     style="fill:#e8b900;fill-rule:evenodd;fill-opacity:1;stroke:none;" />
  <path
     id="path49"
     d="  M 35.361116,41.281303   L 41.281303,41.281303   L 41.281303,35.361116   L 35.361116,35.361116   L 35.361116,41.281303   z "
     style="fill:#ffffff;fill-rule:evenodd;fill-opacity:1;stroke:none;" />
  <path
     id="path51"
     d="  M 43.201363,41.281303   L 49.281555,41.281303   L 49.281555,35.361116   L 43.201363,35.361116   L 43.201363,41.281303   z "
     style="fill:#ffffff;fill-rule:evenodd;fill-opacity:1;stroke:none;" />
  <path
     id="path53"
     d="  M 35.361116,72.802298   L 57.121803,72.802298   L 57.121803,51.041611   L 35.361116,51.041611   L 35.361116,72.802298   z "
     style="fill:#ffffff;fill-rule:evenodd;fill-opacity:1;stroke:none;" />
  <path
     id="path55"
     d="  M 69.442191,87.042747   L 74.882363,87.042747   L 74.882363,96.163035   L 69.442191,96.163035   z "
     style="fill:#e8b900;fill-rule:evenodd;fill-opacity:1;stroke:none;" />
  <path
     id="path57"
     d="  M 33.28105,87.042747   L 38.721222,87.042747   L 38.721222,96.163035   L 33.28105,96.163035   z "
     style="fill:#e8b900;fill-rule:evenodd;fill-opacity:1;stroke:none;" />
  <path
     id="path59"
     d="  M 45.441434,87.042747   L 50.881606,87.042747   L 50.881606,96.163035   L 45.441434,96.163035   z "
     style="fill:#e8b900;fill-rule:evenodd;fill-opacity:1;stroke:none;" />
  <path
     id="path61"
     d="  M 57.441813,87.042747   L 62.881984,87.042747   L 62.881984,96.163035   L 57.441813,96.163035   z "
     style="fill:#e8b900;fill-rule:evenodd;fill-opacity:1;stroke:none;" />
  <path
     id="path63"
     d="  M 51.041611,41.281303   L 57.121803,41.281303   L 57.121803,35.361116   L 51.041611,35.361116   L 51.041611,41.281303   z "
     style="fill:#ffffff;fill-rule:evenodd;fill-opacity:1;stroke:none;" />
  <path
     id="path65"
     d="  M 59.041863,41.281303   L 64.96205,41.281303   L 64.96205,35.361116   L 59.041863,35.361116   L 59.041863,41.281303   z "
     style="fill:#ffffff;fill-rule:evenodd;fill-opacity:1;stroke:none;" />
  <path
     id="path67"
     d="  M 66.882111,41.281303   L 72.802298,41.281303   L 72.802298,35.361116   L 66.882111,35.361116   L 66.882111,41.281303   z "
     style="fill:#ffffff;fill-rule:evenodd;fill-opacity:1;stroke:none;" />
  <path
     id="path69"
     d="  M 35.361116,49.281555   L 41.281303,49.281555   L 41.281303,43.201363   L 35.361116,43.201363   L 35.361116,49.281555   z "
     style="fill:#ffffff;fill-rule:evenodd;fill-opacity:1;stroke:none;" />
  <path
     id="path71"
     d="  M 43.201363,49.281555   L 49.281555,49.281555   L 49.281555,43.201363   L 43.201363,43.201363   L 43.201363,49.281555   z "
     style="fill:#ffffff;fill-rule:evenodd;fill-opacity:1;stroke:none;" />
  <path
     id="path73"
     d="  M 51.041611,49.281555   L 57.121803,49.281555   L 57.121803,43.201363   L 51.041611,43.201363   L 51.041611,49.281555   z "
     style="fill:#ffffff;fill-rule:evenodd;fill-opacity:1;stroke:none;" />
  <path
     id="path75"
     d="  M 59.041863,49.281555   L 64.96205,49.281555   L 64.96205,43.201363   L 59.041863,43.201363   L 59.041863,49.281555   z "
     style="fill:#ffffff;fill-rule:evenodd;fill-opacity:1;stroke:none;" />
  <path
     id="path77"
     d="  M 66.882111,49.281555   L 72.802298,49.281555   L 72.802298,43.201363   L 66.882111,43.201363   L 66.882111,49.281555   z "
     style="fill:#ffffff;fill-rule:evenodd;fill-opacity:1;stroke:none;" />
  <path
     id="path79"
     d="  M 72.802298,35.361116   L 66.882111,35.361116   L 66.882111,41.281303   L 72.802298,41.281303   L 72.802298,35.361116   z "
     style="fill:#ffffff;fill-rule:evenodd;fill-opacity:1;stroke:none;" />
  <path
     id="path81"
     d="  M 72.802298,43.201363   L 66.882111,43.201363   L 66.882111,49.281555   L 72.802298,49.281555   L 72.802298,43.201363   z "
     style="fill:#ffffff;fill-rule:evenodd;fill-opacity:1;stroke:none;" />
  <path
     id="path83"
     d="  M 72.802298,51.041611   L 66.882111,51.041611   L 66.882111,57.121803   L 72.802298,57.121803   L 72.802298,51.041611   z "
     style="fill:#ffffff;fill-rule:evenodd;fill-opacity:1;stroke:none;" />
  <path
     id="path85"
     d="  M 72.802298,58.881858   L 66.882111,58.881858   L 66.882111,64.96205   L 72.802298,64.96205   L 72.802298,58.881858   z "
     style="fill:#ffffff;fill-rule:evenodd;fill-opacity:1;stroke:none;" />
  <path
     id="path87"
     d="  M 72.802298,66.882111   L 66.882111,66.882111   L 66.882111,72.802298   L 72.802298,72.802298   L 72.802298,66.882111   z "
     style="fill:#ffffff;fill-rule:evenodd;fill-opacity:1;stroke:none;" />
  <path
     id="path89"
     d="  M 59.041863,41.281303   L 64.96205,41.281303   L 64.96205,35.361116   L 59.041863,35.361116   L 59.041863,41.281303   z "
     style="fill:#ffffff;fill-rule:evenodd;fill-opacity:1;stroke:none;" />
  <path
     id="path91"
     d="  M 59.041863,49.281555   L 64.96205,49.281555   L 64.96205,43.201363   L 59.041863,43.201363   L 59.041863,49.281555   z "
     style="fill:#ffffff;fill-rule:evenodd;fill-opacity:1;stroke:none;" />
  <path
     id="path93"
     d="  M 64.96205,35.361116   L 59.041863,35.361116   L 59.041863,41.281303   L 64.96205,41.281303   L 64.96205,35.361116   z "
     style="fill:#ffffff;fill-rule:evenodd;fill-opacity:1;stroke:none;" />
  <path
     id="path95"
     d="  M 64.96205,43.201363   L 59.041863,43.201363   L 59.041863,49.281555   L 64.96205,49.281555   L 64.96205,43.201363   z "
     style="fill:#ffffff;fill-rule:evenodd;fill-opacity:1;stroke:none;" />
  <path
     id="path97"
     d="  M 64.96205,51.041611   L 59.041863,51.041611   L 59.041863,57.121803   L 64.96205,57.121803   L 64.96205,51.041611   z "
     style="fill:#ffffff;fill-rule:evenodd;fill-opacity:1;stroke:none;" />
  <path
     id="path99"
     d="  M 64.96205,58.881858   L 59.041863,58.881858   L 59.041863,64.96205   L 64.96205,64.96205   L 64.96205,58.881858   z "
     style="fill:#ffffff;fill-rule:evenodd;fill-opacity:1;stroke:none;" />
  <path
     id="path101"
     d="  M 64.96205,66.882111   L 59.041863,66.882111   L 59.041863,72.802298   L 64.96205,72.802298   L 64.96205,66.882111   z "
     style="fill:#ffffff;fill-rule:evenodd;fill-opacity:1;stroke:none;" />
  <text
     id="text107"
     y="0.000000"
     x="0.000000"
     transform="matrix(1.000000,-0.000000,0.000000,1.000000,109.603459,56.321777)"
     style="font-size:32.000000px;font-style:normal;font-variant:normal;font-weight:400;font-stretch:Normal;line-height:125.000000%;letter-spacing:0px;word-spacing:0px;fill:#000000;fill-opacity:1;stroke:none;font-family:DejaVu Sans Condensed;text-align:start;text-anchor:start;"
     xml:space="preserve"><tspan
       id="tspan105"
       y="0.000000"
       x="0.000000"><tspan
         id="tspan103"
         style="fill:#FFFFFF;font-size:32.000000px;font-style:normal;font-variant:normal;font-weight:400;font-stretch:Normal;font-family:DejaVu Sans Condensed;"
         dy="0.000000"
         dx="0.000000">FAB</tspan></tspan></text>
  <text
     id="text113"
     y="0.000000"
     x="0.000000"
     transform="matrix(1.000000,-0.000000,0.000000,1.000000,165.605226,56.321777)"
     style="font-size:25.625000px;font-style:normal;font-variant:normal;font-weight:400;font-stretch:Normal;line-height:125.000000%;letter-spacing:0px;word-spacing:0px;fill:#000000;fill-opacity:1;stroke:none;font-family:DejaVu Sans Condensed;text-align:start;text-anchor:start;"
     xml:space="preserve"><tspan
       id="tspan111"
       y="0.000000"
       x="0.000000"><tspan
         id="tspan109"
         style="fill:#FFFFFF;font-size:25.625000px;font-style:normal;font-variant:normal;font-weight:400;font-stretch:Normal;font-family:DejaVu Sans Condensed;"
         dy="0.000000"
         dx="0.000000">ULOUS</tspan></tspan></text>
  <text
     id="text119"
     y="0.000000"
     x="0.000000"
     transform="matrix(1.000000,-0.000000,0.000000,1.000000,110.883499,73.922333)"
     style="font-size:15.375000px;font-style:normal;font-variant:normal;font-weight:400;font-stretch:Normal;line-height:125.000000%;letter-spacing:0px;word-spacing:0px;fill:#000000;fill-opacity:1;stroke:none;font-family:DejaVu Sans Condensed;text-align:start;text-anchor:start;"
     xml:space="preserve"><tspan
       id="tspan117"
       y="0.000000"
       x="0.000000"><tspan
         id="tspan115"
         style="fill:#E8B900;font-size:15.375000px;font-style:normal;font-variant:normal;font-weight:400;font-stretch:Normal;font-family:DejaVu Sans Condensed;"
         dy="0.000000"
         dx="0.000000">eFPGAs made easy</tspan></tspan></text>
</svg>
