<?xml version="1.0" encoding="UTF-8" standalone="no"?>
<svg
   xmlns:dc="http://purl.org/dc/elements/1.1/"
   xmlns:cc="http://creativecommons.org/ns#"
   xmlns:rdf="http://www.w3.org/1999/02/22-rdf-syntax-ns#"
   xmlns:svg="http://www.w3.org/2000/svg"
   xmlns="http://www.w3.org/2000/svg"
   id="svg283"
   height="129.33mm"
   width="199.89999mm"
   version="1.0">
  <metadata
     id="metadata287">
    <rdf:RDF>
      <cc:Work
         rdf:about="">
        <dc:format>image/svg+xml</dc:format>
        <dc:type
           rdf:resource="http://purl.org/dc/dcmitype/StillImage" />
      </cc:Work>
    </rdf:RDF>
  </metadata>
  <defs
     id="defs3">
    <pattern
       y="0"
       x="0"
       height="6"
       width="6"
       patternUnits="userSpaceOnUse"
       id="EMFhbasepattern" />
  </defs>
  <path
     id="path5"
     d="  M 45.121424,277.60876   L 123.04388,277.60876   L 123.04388,222.08701   L 45.121424,222.08701   L 45.121424,277.60876   z "
     style="fill:#ffffff;fill-rule:evenodd;fill-opacity:1;stroke:none;" />
  <text
     id="text11"
     y="0.000000"
     x="0.000000"
     transform="matrix(1.000000,-0.000000,0.000000,1.000000,64.482035,237.767504)"
     style="font-size:13.250000px;font-style:normal;font-variant:normal;font-weight:700;font-stretch:Normal;line-height:125.000000%;letter-spacing:0px;word-spacing:0px;fill:#000000;fill-opacity:1;stroke:none;font-family:Arial;text-align:start;text-anchor:start;"
     xml:space="preserve"><tspan
       id="tspan9"
       y="0.000000"
       x="0.000000"><tspan
         id="tspan7"
         style="fill:#000000;font-size:13.250000px;font-style:normal;font-variant:normal;font-weight:700;font-stretch:Normal;font-family:Arial;"
         dy="0.000000"
         dx="0.000000">only if</tspan></tspan></text>
  <text
     id="text17"
     y="0.000000"
     x="0.000000"
     transform="matrix(1.000000,-0.000000,0.000000,1.000000,55.681757,253.768008)"
     style="font-size:13.250000px;font-style:normal;font-variant:normal;font-weight:700;font-stretch:Normal;line-height:125.000000%;letter-spacing:0px;word-spacing:0px;fill:#000000;fill-opacity:1;stroke:none;font-family:Arial;text-align:start;text-anchor:start;"
     xml:space="preserve"><tspan
       id="tspan15"
       y="0.000000"
       x="0.000000"><tspan
         id="tspan13"
         style="fill:#000000;font-size:13.250000px;font-style:normal;font-variant:normal;font-weight:700;font-stretch:Normal;font-family:Arial;"
         dy="0.000000"
         dx="0.000000">silicon is</tspan></tspan></text>
  <text
     id="text23"
     y="0.000000"
     x="0.000000"
     transform="matrix(1.000000,-0.000000,0.000000,1.000000,53.761697,269.768513)"
     style="font-size:13.250000px;font-style:normal;font-variant:normal;font-weight:700;font-stretch:Normal;line-height:125.000000%;letter-spacing:0px;word-spacing:0px;fill:#000000;fill-opacity:1;stroke:none;font-family:Arial;text-align:start;text-anchor:start;"
     xml:space="preserve"><tspan
       id="tspan21"
       y="0.000000"
       x="0.000000"><tspan
         id="tspan19"
         style="fill:#000000;font-size:13.250000px;font-style:normal;font-variant:normal;font-weight:700;font-stretch:Normal;font-family:Arial;"
         dy="0.000000"
         dx="0.000000">produced</tspan></tspan></text>
  <path
     id="path25"
     d="  M 531.05676,248.96786   L 628.33983,248.96786   L 628.33983,223.36705   L 531.05676,223.36705   L 531.05676,248.96786   z "
     style="fill:#ffffff;fill-rule:evenodd;fill-opacity:1;stroke:none;" />
  <text
     id="text31"
     y="0.000000"
     x="0.000000"
     transform="matrix(1.000000,-0.000000,0.000000,1.000000,540.177047,232.167327)"
     style="font-size:13.250000px;font-style:normal;font-variant:normal;font-weight:700;font-stretch:Normal;line-height:125.000000%;letter-spacing:0px;word-spacing:0px;fill:#000000;fill-opacity:1;stroke:none;font-family:Arial;text-align:start;text-anchor:start;"
     xml:space="preserve"><tspan
       id="tspan29"
       y="0.000000"
       x="0.000000"><tspan
         id="tspan27"
         style="fill:#000000;font-size:13.250000px;font-style:normal;font-variant:normal;font-weight:700;font-stretch:Normal;font-family:Arial;"
         dy="0.000000"
         dx="0.000000">reimplement</tspan></tspan></text>
  <text
     id="text37"
     y="0.000000"
     x="0.000000"
     transform="matrix(1.000000,-0.000000,0.000000,1.000000,538.737002,248.167832)"
     style="font-size:13.250000px;font-style:normal;font-variant:normal;font-weight:700;font-stretch:Normal;line-height:125.000000%;letter-spacing:0px;word-spacing:0px;fill:#000000;fill-opacity:1;stroke:none;font-family:Arial;text-align:start;text-anchor:start;"
     xml:space="preserve"><tspan
       id="tspan35"
       y="0.000000"
       x="0.000000"><tspan
         id="tspan33"
         style="fill:#000000;font-size:13.250000px;font-style:normal;font-variant:normal;font-weight:700;font-stretch:Normal;font-family:Arial;"
         dy="0.000000"
         dx="0.000000">user designs</tspan></tspan></text>
  <path
     id="path39"
     d="  M 280.80886,190.72602   L 387.05221,190.72602   L 387.05221,164.96521   L 280.80886,164.96521   L 280.80886,190.72602   z "
     style="fill:#ffffff;fill-rule:evenodd;fill-opacity:1;stroke:none;" />
  <text
     id="text45"
     y="0.000000"
     x="0.000000"
     transform="matrix(1.000000,-0.000000,0.000000,1.000000,292.489230,181.925741)"
     style="font-size:13.250000px;font-style:normal;font-variant:normal;font-weight:700;font-stretch:Normal;line-height:125.000000%;letter-spacing:0px;word-spacing:0px;fill:#000000;fill-opacity:1;stroke:none;font-family:Arial;text-align:start;text-anchor:start;"
     xml:space="preserve"><tspan
       id="tspan43"
       y="0.000000"
       x="0.000000"><tspan
         id="tspan41"
         style="fill:#000000;font-size:13.250000px;font-style:normal;font-variant:normal;font-weight:700;font-stretch:Normal;font-family:Arial;"
         dy="0.000000"
         dx="0.000000">timing model</tspan></tspan></text>
  <path
     id="path47"
     d="  M 525.45658,84.002651   L 669.14112,84.002651   L 669.14112,0   L 525.45658,0   L 525.45658,84.002651   z "
     style="fill:#ffffff;fill-rule:evenodd;fill-opacity:1;stroke:none;" />
  <text
     id="text53"
     y="0.000000"
     x="0.000000"
     transform="matrix(1.000000,-0.000000,0.000000,1.000000,534.416865,22.080697)"
     style="font-size:13.250000px;font-style:normal;font-variant:normal;font-weight:700;font-stretch:Normal;line-height:125.000000%;letter-spacing:0px;word-spacing:0px;fill:#000000;fill-opacity:1;stroke:none;font-family:Arial;text-align:start;text-anchor:start;"
     xml:space="preserve"><tspan
       id="tspan51"
       y="0.000000"
       x="0.000000"><tspan
         id="tspan49"
         style="fill:#000000;font-size:13.250000px;font-style:normal;font-variant:normal;font-weight:700;font-stretch:Normal;font-family:Arial;"
         dy="0.000000"
         dx="0.000000">changing primitives</tspan></tspan></text>
  <text
     id="text59"
     y="0.000000"
     x="0.000000"
     transform="matrix(1.000000,-0.000000,0.000000,1.000000,539.857037,38.081202)"
     style="font-size:13.250000px;font-style:normal;font-variant:normal;font-weight:700;font-stretch:Normal;line-height:125.000000%;letter-spacing:0px;word-spacing:0px;fill:#000000;fill-opacity:1;stroke:none;font-family:Arial;text-align:start;text-anchor:start;"
     xml:space="preserve"><tspan
       id="tspan57"
       y="0.000000"
       x="0.000000"><tspan
         id="tspan55"
         style="fill:#000000;font-size:13.250000px;font-style:normal;font-variant:normal;font-weight:700;font-stretch:Normal;font-family:Arial;"
         dy="0.000000"
         dx="0.000000">(e.g., LUT4 versus</tspan></tspan></text>
  <text
     id="text65"
     y="0.000000"
     x="0.000000"
     transform="matrix(1.000000,-0.000000,0.000000,1.000000,536.176921,54.081707)"
     style="font-size:13.250000px;font-style:normal;font-variant:normal;font-weight:700;font-stretch:Normal;line-height:125.000000%;letter-spacing:0px;word-spacing:0px;fill:#000000;fill-opacity:1;stroke:none;font-family:Arial;text-align:start;text-anchor:start;"
     xml:space="preserve"><tspan
       id="tspan63"
       y="0.000000"
       x="0.000000"><tspan
         id="tspan61"
         style="fill:#000000;font-size:13.250000px;font-style:normal;font-variant:normal;font-weight:700;font-stretch:Normal;font-family:Arial;"
         dy="0.000000"
         dx="0.000000">LUT6) requires tool</tspan></tspan></text>
  <text
     id="text71"
     y="0.000000"
     x="0.000000"
     transform="matrix(1.000000,-0.000000,0.000000,1.000000,553.617471,70.082212)"
     style="font-size:13.250000px;font-style:normal;font-variant:normal;font-weight:700;font-stretch:Normal;line-height:125.000000%;letter-spacing:0px;word-spacing:0px;fill:#000000;fill-opacity:1;stroke:none;font-family:Arial;text-align:start;text-anchor:start;"
     xml:space="preserve"><tspan
       id="tspan69"
       y="0.000000"
       x="0.000000"><tspan
         id="tspan67"
         style="fill:#000000;font-size:13.250000px;font-style:normal;font-variant:normal;font-weight:700;font-stretch:Normal;font-family:Arial;"
         dy="0.000000"
         dx="0.000000">recompilation</tspan></tspan></text>
  <path
     id="path73"
     d="  M 345.13089,116.96369   L 491.37551,116.96369   L 491.37551,63.041989   L 345.13089,63.041989   L 345.13089,116.96369   z "
     style="fill:#ffffff;fill-rule:evenodd;fill-opacity:1;stroke:none;" />
  <text
     id="text79"
     y="0.000000"
     x="0.000000"
     transform="matrix(1.000000,-0.000000,0.000000,1.000000,363.851482,78.082464)"
     style="font-size:13.250000px;font-style:normal;font-variant:normal;font-weight:700;font-stretch:Normal;line-height:125.000000%;letter-spacing:0px;word-spacing:0px;fill:#000000;fill-opacity:1;stroke:none;font-family:Arial;text-align:start;text-anchor:start;"
     xml:space="preserve"><tspan
       id="tspan77"
       y="0.000000"
       x="0.000000"><tspan
         id="tspan75"
         style="fill:#000000;font-size:13.250000px;font-style:normal;font-variant:normal;font-weight:700;font-stretch:Normal;font-family:Arial;"
         dy="0.000000"
         dx="0.000000">changing #CLBs,</tspan></tspan></text>
  <text
     id="text85"
     y="0.000000"
     x="0.000000"
     transform="matrix(1.000000,-0.000000,0.000000,1.000000,350.411058,94.082969)"
     style="font-size:13.250000px;font-style:normal;font-variant:normal;font-weight:700;font-stretch:Normal;line-height:125.000000%;letter-spacing:0px;word-spacing:0px;fill:#000000;fill-opacity:1;stroke:none;font-family:Arial;text-align:start;text-anchor:start;"
     xml:space="preserve"><tspan
       id="tspan83"
       y="0.000000"
       x="0.000000"><tspan
         id="tspan81"
         style="fill:#000000;font-size:13.250000px;font-style:normal;font-variant:normal;font-weight:700;font-stretch:Normal;font-family:Arial;"
         dy="0.000000"
         dx="0.000000">BRAMs, IOs, requires</tspan></tspan></text>
  <text
     id="text91"
     y="0.000000"
     x="0.000000"
     transform="matrix(1.000000,-0.000000,0.000000,1.000000,357.611286,110.083474)"
     style="font-size:13.250000px;font-style:normal;font-variant:normal;font-weight:700;font-stretch:Normal;line-height:125.000000%;letter-spacing:0px;word-spacing:0px;fill:#000000;fill-opacity:1;stroke:none;font-family:Arial;text-align:start;text-anchor:start;"
     xml:space="preserve"><tspan
       id="tspan89"
       y="0.000000"
       x="0.000000"><tspan
         id="tspan87"
         style="fill:#000000;font-size:13.250000px;font-style:normal;font-variant:normal;font-weight:700;font-stretch:Normal;font-family:Arial;"
         dy="0.000000"
         dx="0.000000">graph regeneration</tspan></tspan></text>
  <path
     id="path93"
     d="  M 189.12597,116.96369   L 333.13051,116.96369   L 333.13051,68.962176   L 189.12597,68.962176   L 189.12597,116.96369   z "
     style="fill:#ffffff;fill-rule:evenodd;fill-opacity:1;stroke:none;" />
  <text
     id="text99"
     y="0.000000"
     x="0.000000"
     transform="matrix(1.000000,-0.000000,0.000000,1.000000,206.726524,80.962555)"
     style="font-size:13.250000px;font-style:normal;font-variant:normal;font-weight:700;font-stretch:Normal;line-height:125.000000%;letter-spacing:0px;word-spacing:0px;fill:#000000;fill-opacity:1;stroke:none;font-family:Arial;text-align:start;text-anchor:start;"
     xml:space="preserve"><tspan
       id="tspan97"
       y="0.000000"
       x="0.000000"><tspan
         id="tspan95"
         style="fill:#000000;font-size:13.250000px;font-style:normal;font-variant:normal;font-weight:700;font-stretch:Normal;font-family:Arial;"
         dy="0.000000"
         dx="0.000000">changing #CLBs,</tspan></tspan></text>
  <text
     id="text105"
     y="0.000000"
     x="0.000000"
     transform="matrix(1.000000,-0.000000,0.000000,1.000000,221.286983,96.963060)"
     style="font-size:13.250000px;font-style:normal;font-variant:normal;font-weight:700;font-stretch:Normal;line-height:125.000000%;letter-spacing:0px;word-spacing:0px;fill:#000000;fill-opacity:1;stroke:none;font-family:Arial;text-align:start;text-anchor:start;"
     xml:space="preserve"><tspan
       id="tspan103"
       y="0.000000"
       x="0.000000"><tspan
         id="tspan101"
         style="fill:#000000;font-size:13.250000px;font-style:normal;font-variant:normal;font-weight:700;font-stretch:Normal;font-family:Arial;"
         dy="0.000000"
         dx="0.000000">BRAMs, IOs,</tspan></tspan></text>
  <text
     id="text111"
     y="0.000000"
     x="0.000000"
     transform="matrix(1.000000,-0.000000,0.000000,1.000000,199.046282,112.963565)"
     style="font-size:13.250000px;font-style:normal;font-variant:normal;font-weight:700;font-stretch:Normal;line-height:125.000000%;letter-spacing:0px;word-spacing:0px;fill:#000000;fill-opacity:1;stroke:none;font-family:Arial;text-align:start;text-anchor:start;"
     xml:space="preserve"><tspan
       id="tspan109"
       y="0.000000"
       x="0.000000"><tspan
         id="tspan107"
         style="fill:#000000;font-size:13.250000px;font-style:normal;font-variant:normal;font-weight:700;font-stretch:Normal;font-family:Arial;"
         dy="0.000000"
         dx="0.000000">requires restitching</tspan></tspan></text>
  <path
     id="path113"
     d="  M 243.04767,56.961798   L 435.05373,56.961798   L 435.05373,8.9602828   L 243.04767,8.9602828   L 243.04767,56.961798   z "
     style="fill:#333399;fill-rule:evenodd;fill-opacity:1;stroke:#ffcc00;stroke-width:1.6000504px;stroke-linecap:round;stroke-linejoin:round;stroke-miterlimit:4;stroke-dasharray:none;stroke-opacity:1;" />
  <text
     id="text119"
     y="0.000000"
     x="0.000000"
     transform="matrix(1.000000,-0.000000,0.000000,1.000000,276.808736,37.761192)"
     style="font-size:16.000000px;font-style:normal;font-variant:normal;font-weight:700;font-stretch:Normal;line-height:125.000000%;letter-spacing:0px;word-spacing:0px;fill:#000000;fill-opacity:1;stroke:none;font-family:Arial;text-align:start;text-anchor:start;"
     xml:space="preserve"><tspan
       id="tspan117"
       y="0.000000"
       x="0.000000"><tspan
         id="tspan115"
         style="fill:#FFFFFF;font-size:16.000000px;font-style:normal;font-variant:normal;font-weight:700;font-stretch:Normal;font-family:Arial;"
         dy="0.000000"
         dx="0.000000">Fabric definition</tspan></tspan></text>
  <path
     id="path121"
     d="  M 51.041611,176.96558   L 243.04767,176.96558   L 243.04767,128.96407   L 51.041611,128.96407   L 51.041611,176.96558   z "
     style="fill:#333399;fill-rule:evenodd;fill-opacity:1;stroke:#ffcc00;stroke-width:1.6000504px;stroke-linecap:round;stroke-linejoin:round;stroke-miterlimit:4;stroke-dasharray:none;stroke-opacity:1;" />
  <text
     id="text127"
     y="0.000000"
     x="0.000000"
     transform="matrix(1.000000,-0.000000,0.000000,1.000000,101.763211,148.164676)"
     style="font-size:16.000000px;font-style:normal;font-variant:normal;font-weight:700;font-stretch:Normal;line-height:125.000000%;letter-spacing:0px;word-spacing:0px;fill:#000000;fill-opacity:1;stroke:none;font-family:Arial;text-align:start;text-anchor:start;"
     xml:space="preserve"><tspan
       id="tspan125"
       y="0.000000"
       x="0.000000"><tspan
         id="tspan123"
         style="fill:#FFFFFF;font-size:16.000000px;font-style:normal;font-variant:normal;font-weight:700;font-stretch:Normal;font-family:Arial;"
         dy="0.000000"
         dx="0.000000">Fabric ASIC</tspan></tspan></text>
  <text
     id="text133"
     y="0.000000"
     x="0.000000"
     transform="matrix(1.000000,-0.000000,0.000000,1.000000,87.842772,167.365282)"
     style="font-size:16.000000px;font-style:normal;font-variant:normal;font-weight:700;font-stretch:Normal;line-height:125.000000%;letter-spacing:0px;word-spacing:0px;fill:#000000;fill-opacity:1;stroke:none;font-family:Arial;text-align:start;text-anchor:start;"
     xml:space="preserve"><tspan
       id="tspan131"
       y="0.000000"
       x="0.000000"><tspan
         id="tspan129"
         style="fill:#FFFFFF;font-size:16.000000px;font-style:normal;font-variant:normal;font-weight:700;font-stretch:Normal;font-family:Arial;"
         dy="0.000000"
         dx="0.000000">implementation</tspan></tspan></text>
  <path
     id="path135"
     d="  M 435.05373,176.96558   L 627.05979,176.96558   L 627.05979,128.96407   L 435.05373,128.96407   L 435.05373,176.96558   z "
     style="fill:#333399;fill-rule:evenodd;fill-opacity:1;stroke:#ffcc00;stroke-width:1.6000504px;stroke-linecap:round;stroke-linejoin:round;stroke-miterlimit:4;stroke-dasharray:none;stroke-opacity:1;" />
  <text
     id="text141"
     y="0.000000"
     x="0.000000"
     transform="matrix(1.000000,-0.000000,0.000000,1.000000,472.974926,148.164676)"
     style="font-size:16.000000px;font-style:normal;font-variant:normal;font-weight:700;font-stretch:Normal;line-height:125.000000%;letter-spacing:0px;word-spacing:0px;fill:#000000;fill-opacity:1;stroke:none;font-family:Arial;text-align:start;text-anchor:start;"
     xml:space="preserve"><tspan
       id="tspan139"
       y="0.000000"
       x="0.000000"><tspan
         id="tspan137"
         style="fill:#FFFFFF;font-size:16.000000px;font-style:normal;font-variant:normal;font-weight:700;font-stretch:Normal;font-family:Arial;"
         dy="0.000000"
         dx="0.000000">FPGA CAD tool</tspan></tspan></text>
  <text
     id="text147"
     y="0.000000"
     x="0.000000"
     transform="matrix(1.000000,-0.000000,0.000000,1.000000,466.894734,167.365282)"
     style="font-size:16.000000px;font-style:normal;font-variant:normal;font-weight:700;font-stretch:Normal;line-height:125.000000%;letter-spacing:0px;word-spacing:0px;fill:#000000;fill-opacity:1;stroke:none;font-family:Arial;text-align:start;text-anchor:start;"
     xml:space="preserve"><tspan
       id="tspan145"
       y="0.000000"
       x="0.000000"><tspan
         id="tspan143"
         style="fill:#FFFFFF;font-size:16.000000px;font-style:normal;font-variant:normal;font-weight:700;font-stretch:Normal;font-family:Arial;"
         dy="0.000000"
         dx="0.000000">parameterization</tspan></tspan></text>
  <path
     id="path149"
     d="  M 435.05373,344.97089   L 627.05979,344.97089   L 627.05979,296.96937   L 435.05373,296.96937   L 435.05373,344.97089   z "
     style="fill:#333399;fill-rule:evenodd;fill-opacity:1;stroke:#ffcc00;stroke-width:1.6000504px;stroke-linecap:round;stroke-linejoin:round;stroke-miterlimit:4;stroke-dasharray:none;stroke-opacity:1;" />
  <text
     id="text155"
     y="0.000000"
     x="0.000000"
     transform="matrix(1.000000,-0.000000,0.000000,1.000000,460.174522,316.169978)"
     style="font-size:16.000000px;font-style:normal;font-variant:normal;font-weight:700;font-stretch:Normal;line-height:125.000000%;letter-spacing:0px;word-spacing:0px;fill:#000000;fill-opacity:1;stroke:none;font-family:Arial;text-align:start;text-anchor:start;"
     xml:space="preserve"><tspan
       id="tspan153"
       y="0.000000"
       x="0.000000"><tspan
         id="tspan151"
         style="fill:#FFFFFF;font-size:16.000000px;font-style:normal;font-variant:normal;font-weight:700;font-stretch:Normal;font-family:Arial;"
         dy="0.000000"
         dx="0.000000">FPGA-to-bitstream</tspan></tspan></text>
  <text
     id="text161"
     y="0.000000"
     x="0.000000"
     transform="matrix(1.000000,-0.000000,0.000000,1.000000,486.095340,335.370584)"
     style="font-size:16.000000px;font-style:normal;font-variant:normal;font-weight:700;font-stretch:Normal;line-height:125.000000%;letter-spacing:0px;word-spacing:0px;fill:#000000;fill-opacity:1;stroke:none;font-family:Arial;text-align:start;text-anchor:start;"
     xml:space="preserve"><tspan
       id="tspan159"
       y="0.000000"
       x="0.000000"><tspan
         id="tspan157"
         style="fill:#FFFFFF;font-size:16.000000px;font-style:normal;font-variant:normal;font-weight:700;font-stretch:Normal;font-family:Arial;"
         dy="0.000000"
         dx="0.000000">compilation</tspan></tspan></text>
  <path
     id="path163"
     d="  M 243.04767,440.97392   L 435.05373,440.97392   L 435.05373,392.9724   L 243.04767,392.9724   L 243.04767,440.97392   z "
     style="fill:#333399;fill-rule:evenodd;fill-opacity:1;stroke:#ffcc00;stroke-width:1.6000504px;stroke-linecap:round;stroke-linejoin:round;stroke-miterlimit:4;stroke-dasharray:none;stroke-opacity:1;" />
  <text
     id="text169"
     y="0.000000"
     x="0.000000"
     transform="matrix(1.000000,-0.000000,0.000000,1.000000,249.127862,421.773310)"
     style="font-size:16.000000px;font-style:normal;font-variant:normal;font-weight:700;font-stretch:Normal;line-height:125.000000%;letter-spacing:0px;word-spacing:0px;fill:#000000;fill-opacity:1;stroke:none;font-family:Arial;text-align:start;text-anchor:start;"
     xml:space="preserve"><tspan
       id="tspan167"
       y="0.000000"
       x="0.000000"><tspan
         id="tspan165"
         style="fill:#FFFFFF;font-size:16.000000px;font-style:normal;font-variant:normal;font-weight:700;font-stretch:Normal;font-family:Arial;"
         dy="0.000000"
         dx="0.000000">Simulation &amp; Emulation</tspan></tspan></text>
  <path
     id="path171"
     d="  M 51.041611,368.97164   L 243.04767,368.97164   L 243.04767,320.97013   L 51.041611,320.97013   L 51.041611,368.97164   z "
     style="fill:#333399;fill-rule:evenodd;fill-opacity:1;stroke:#ffcc00;stroke-width:1.6000504px;stroke-linecap:round;stroke-linejoin:round;stroke-miterlimit:4;stroke-dasharray:none;stroke-opacity:1;" />
  <text
     id="text177"
     y="0.000000"
     x="0.000000"
     transform="matrix(1.000000,-0.000000,0.000000,1.000000,57.441813,349.771038)"
     style="font-size:16.000000px;font-style:normal;font-variant:normal;font-weight:700;font-stretch:Normal;line-height:125.000000%;letter-spacing:0px;word-spacing:0px;fill:#000000;fill-opacity:1;stroke:none;font-family:Arial;text-align:start;text-anchor:start;"
     xml:space="preserve"><tspan
       id="tspan175"
       y="0.000000"
       x="0.000000"><tspan
         id="tspan173"
         style="fill:#FFFFFF;font-size:16.000000px;font-style:normal;font-variant:normal;font-weight:700;font-stretch:Normal;font-family:Arial;"
         dy="0.000000"
         dx="0.000000">Test &amp; Characterization</tspan></tspan></text>
  <path
     id="path179"
     d="  M 243.04767,272.96861   L 435.05373,272.96861   L 435.05373,224.9671   L 243.04767,224.9671   L 243.04767,272.96861   z "
     style="fill:#333399;fill-rule:evenodd;fill-opacity:1;stroke:#ffcc00;stroke-width:1.6000504px;stroke-linecap:round;stroke-linejoin:round;stroke-miterlimit:4;stroke-dasharray:none;stroke-opacity:1;" />
  <text
     id="text185"
     y="0.000000"
     x="0.000000"
     transform="matrix(1.000000,-0.000000,0.000000,1.000000,275.368690,253.768008)"
     style="font-size:16.000000px;font-style:normal;font-variant:normal;font-weight:700;font-stretch:Normal;line-height:125.000000%;letter-spacing:0px;word-spacing:0px;fill:#000000;fill-opacity:1;stroke:none;font-family:Arial;text-align:start;text-anchor:start;"
     xml:space="preserve"><tspan
       id="tspan183"
       y="0.000000"
       x="0.000000"><tspan
         id="tspan181"
         style="fill:#FFFFFF;font-size:16.000000px;font-style:normal;font-variant:normal;font-weight:700;font-stretch:Normal;font-family:Arial;"
         dy="0.000000"
         dx="0.000000">Model Validation</tspan></tspan></text>
  <path
     id="path187"
     d="  M 243.04767,20.960661   L 233.60737,23.360737   L 224.16707,25.920818   L 214.72678,28.800909   L 205.60649,31.841005   L 196.64621,35.201111   L 187.84593,38.721222   L 179.36566,42.401338   L 171.2054,46.241459   L 163.36516,50.401591   L 155.68491,54.561722   L 148.48469,58.881858   L 141.76447,63.362   L 135.36427,68.002146   L 129.44409,72.642292   L 124.00391,77.282439   L 119.04376,82.08259   L 114.56362,86.882742   L 110.56349,91.842898   L 107.20338,96.64305   L 104.32329,101.4432   L 102.08322,106.24335   L 100.32317,111.0435   L 99.043126,115.68365  "
     style="fill:none;stroke:#000000;stroke-width:5.4401717px;stroke-linecap:round;stroke-linejoin:round;stroke-miterlimit:4;stroke-dasharray:none;stroke-opacity:1;" />
  <path
     id="path189"
     d="  M 99.043126,128.96407   L 90.402853,111.36351   L 91.362883,111.84353   L 92.322914,112.32354   L 93.282944,112.64355   L 94.402979,112.96356   L 95.363009,113.12357   L 96.483045,113.28358   L 97.443075,113.44358   L 98.56311,113.44358   L 99.683146,113.44358   L 100.80318,113.44358   L 101.76321,113.28358   L 102.88325,113.12357   L 103.84328,112.96356   L 104.96331,112.64355   L 105.92334,112.32354   L 106.88337,111.84353   L 108.00341,111.52352   L 99.043126,128.96407   z "
     style="fill:#000000;fill-rule:evenodd;fill-opacity:1;stroke:none;" />
  <path
     id="path191"
     d="  M 243.04767,44.961419   L 236.32746,48.641535   L 229.76725,52.641661   L 223.36705,56.641788   L 217.44686,60.961924   L 211.68668,65.442065   L 206.40651,70.082212   L 201.44636,74.722358   L 196.96622,79.362505   L 192.96609,84.162656   L 189.44598,88.962808   L 186.40588,93.762959   L 183.8458,98.56311   L 181.92574,103.04325   L 180.4857,107.6834   L 179.68567,112.00353   L 179.52567,116.16367   L 179.84568,120.16379  "
     style="fill:none;stroke:#808080;stroke-width:2.880091px;stroke-linecap:round;stroke-linejoin:round;stroke-miterlimit:4;stroke-dasharray:none;stroke-opacity:1;" />
  <path
     id="path193"
     d="  M 183.04578,128.96407   L 172.80545,119.52377   L 173.60548,119.52377   L 174.4055,119.52377   L 175.20553,119.52377   L 175.84555,119.52377   L 176.64557,119.36377   L 177.4456,119.20376   L 178.08562,119.04376   L 178.88565,118.88375   L 179.52567,118.56374   L 180.32569,118.24373   L 180.96571,117.92372   L 181.60573,117.60371   L 182.24575,117.1237   L 182.88577,116.64368   L 183.52579,116.16367   L 184.00581,115.68365   L 184.64583,115.20364   L 183.04578,128.96407   z "
     style="fill:#808080;fill-rule:evenodd;fill-opacity:1;stroke:none;" />
  <path
     id="path195"
     d="  M 0,72.002272   L 144.00454,72.002272   L 144.00454,8.9602828   L 0,8.9602828   L 0,72.002272   z "
     style="fill:#ffffff;fill-rule:evenodd;fill-opacity:1;stroke:none;" />
  <text
     id="text201"
     y="0.000000"
     x="0.000000"
     transform="matrix(1.000000,-0.000000,0.000000,1.000000,9.120288,20.480646)"
     style="font-size:13.250000px;font-style:normal;font-variant:normal;font-weight:700;font-stretch:Normal;line-height:125.000000%;letter-spacing:0px;word-spacing:0px;fill:#000000;fill-opacity:1;stroke:none;font-family:Arial;text-align:start;text-anchor:start;"
     xml:space="preserve"><tspan
       id="tspan199"
       y="0.000000"
       x="0.000000"><tspan
         id="tspan197"
         style="fill:#000000;font-size:13.250000px;font-style:normal;font-variant:normal;font-weight:700;font-stretch:Normal;font-family:Arial;"
         dy="0.000000"
         dx="0.000000">changing primitives</tspan></tspan></text>
  <text
     id="text207"
     y="0.000000"
     x="0.000000"
     transform="matrix(1.000000,-0.000000,0.000000,1.000000,14.720465,36.481151)"
     style="font-size:13.250000px;font-style:normal;font-variant:normal;font-weight:700;font-stretch:Normal;line-height:125.000000%;letter-spacing:0px;word-spacing:0px;fill:#000000;fill-opacity:1;stroke:none;font-family:Arial;text-align:start;text-anchor:start;"
     xml:space="preserve"><tspan
       id="tspan205"
       y="0.000000"
       x="0.000000"><tspan
         id="tspan203"
         style="fill:#000000;font-size:13.250000px;font-style:normal;font-variant:normal;font-weight:700;font-stretch:Normal;font-family:Arial;"
         dy="0.000000"
         dx="0.000000">(e.g., LUT4 versus</tspan></tspan></text>
  <text
     id="text213"
     y="0.000000"
     x="0.000000"
     transform="matrix(1.000000,-0.000000,0.000000,1.000000,25.120793,52.481656)"
     style="font-size:13.250000px;font-style:normal;font-variant:normal;font-weight:700;font-stretch:Normal;line-height:125.000000%;letter-spacing:0px;word-spacing:0px;fill:#000000;fill-opacity:1;stroke:none;font-family:Arial;text-align:start;text-anchor:start;"
     xml:space="preserve"><tspan
       id="tspan211"
       y="0.000000"
       x="0.000000"><tspan
         id="tspan209"
         style="fill:#000000;font-size:13.250000px;font-style:normal;font-variant:normal;font-weight:700;font-stretch:Normal;font-family:Arial;"
         dy="0.000000"
         dx="0.000000">LUT6) requires</tspan></tspan></text>
  <text
     id="text219"
     y="0.000000"
     x="0.000000"
     transform="matrix(1.000000,-0.000000,0.000000,1.000000,7.360232,68.482161)"
     style="font-size:13.250000px;font-style:normal;font-variant:normal;font-weight:700;font-stretch:Normal;line-height:125.000000%;letter-spacing:0px;word-spacing:0px;fill:#000000;fill-opacity:1;stroke:none;font-family:Arial;text-align:start;text-anchor:start;"
     xml:space="preserve"><tspan
       id="tspan217"
       y="0.000000"
       x="0.000000"><tspan
         id="tspan215"
         style="fill:#000000;font-size:13.250000px;font-style:normal;font-variant:normal;font-weight:700;font-stretch:Normal;font-family:Arial;"
         dy="0.000000"
         dx="0.000000">reimplementing tiles</tspan></tspan></text>
  <path
     id="path221"
     d="  M 435.05373,20.960661   L 444.65403,23.360737   L 454.09433,25.920818   L 463.37462,28.800909   L 472.49491,31.841005   L 481.45519,35.201111   L 490.25547,38.721222   L 498.73574,42.401338   L 506.896,46.241459   L 514.89625,50.401591   L 522.41649,54.561722   L 529.61671,58.881858   L 536.33693,63.362   L 542.73713,68.002146   L 548.65731,72.642292   L 554.09749,77.282439   L 559.21765,82.08259   L 563.53778,86.882742   L 567.53791,91.842898   L 570.89802,96.64305   L 573.77811,101.4432   L 576.17818,106.24335   L 577.93824,111.0435   L 579.05827,115.68365  "
     style="fill:none;stroke:#000000;stroke-width:5.4401717px;stroke-linecap:round;stroke-linejoin:round;stroke-miterlimit:4;stroke-dasharray:none;stroke-opacity:1;" />
  <path
     id="path223"
     d="  M 579.05827,128.96407   L 587.85855,111.36351   L 586.89852,111.84353   L 585.93849,112.32354   L 584.81846,112.64355   L 583.85843,112.96356   L 582.73839,113.12357   L 581.77836,113.28358   L 580.65832,113.44358   L 579.53829,113.44358   L 578.57826,113.44358   L 577.45822,113.44358   L 576.33819,113.28358   L 575.37816,113.12357   L 574.25812,112.96356   L 573.13809,112.64355   L 572.17806,112.32354   L 571.21803,111.84353   L 570.258,111.52352   L 579.05827,128.96407   z "
     style="fill:#000000;fill-rule:evenodd;fill-opacity:1;stroke:none;" />
  <path
     id="path225"
     d="  M 435.05373,44.961419   L 441.93395,48.641535   L 448.49415,52.641661   L 454.73435,56.641788   L 460.81454,60.961924   L 466.41472,65.442065   L 471.85489,70.082212   L 476.65504,74.722358   L 481.13518,79.362505   L 485.29532,84.162656   L 488.81543,88.962808   L 491.85552,93.762959   L 494.2556,98.56311   L 496.33566,103.04325   L 497.6157,107.6834   L 498.41573,112.00353   L 498.73574,116.16367   L 498.41573,120.16379  "
     style="fill:none;stroke:#808080;stroke-width:2.880091px;stroke-linecap:round;stroke-linejoin:round;stroke-miterlimit:4;stroke-dasharray:none;stroke-opacity:1;" />
  <path
     id="path227"
     d="  M 495.05562,128.96407   L 505.29595,119.52377   L 504.49592,119.52377   L 503.6959,119.52377   L 503.05588,119.52377   L 502.25585,119.52377   L 501.45583,119.36377   L 500.8158,119.20376   L 500.01578,119.04376   L 499.21575,118.88375   L 498.57573,118.56374   L 497.93571,118.24373   L 497.13569,117.92372   L 496.49567,117.60371   L 495.85565,117.1237   L 495.21563,116.64368   L 494.73561,116.16367   L 494.09559,115.68365   L 493.61558,115.20364   L 495.05562,128.96407   z "
     style="fill:#808080;fill-rule:evenodd;fill-opacity:1;stroke:none;" />
  <path
     id="path229"
     d="  M 243.04767,165.92524   L 425.61343,165.92524  "
     style="fill:none;stroke:#808080;stroke-width:2.880091px;stroke-linecap:round;stroke-linejoin:round;stroke-miterlimit:4;stroke-dasharray:none;stroke-opacity:1;" />
  <path
     id="path231"
     d="  M 435.05373,165.92524   L 422.57334,172.16543   L 422.89335,171.36541   L 423.21336,170.72539   L 423.53337,169.92536   L 423.69337,169.28534   L 423.85338,168.48532   L 424.01338,167.68529   L 424.01338,167.04527   L 424.01338,166.24525   L 424.01338,165.44522   L 424.01338,164.6452   L 424.01338,164.00518   L 423.85338,163.20515   L 423.69337,162.40513   L 423.53337,161.76511   L 423.21336,160.96508   L 422.89335,160.32506   L 422.57334,159.68504   L 435.05373,165.92524   z "
     style="fill:#808080;fill-rule:evenodd;fill-opacity:1;stroke:none;" />
  <path
     id="path233"
     d="  M 531.05676,176.96558   L 531.05676,287.52907  "
     style="fill:none;stroke:#808080;stroke-width:2.880091px;stroke-linecap:round;stroke-linejoin:round;stroke-miterlimit:4;stroke-dasharray:none;stroke-opacity:1;" />
  <path
     id="path235"
     d="  M 531.05676,296.96937   L 524.81656,284.48898   L 525.61659,284.80899   L 526.25661,285.129   L 526.89663,285.44901   L 527.69665,285.60901   L 528.49668,285.76902   L 529.1367,285.92902   L 529.93672,285.92902   L 530.73675,286.08903   L 531.53677,286.08903   L 532.17679,285.92902   L 532.97682,285.92902   L 533.77685,285.76902   L 534.41687,285.60901   L 535.21689,285.44901   L 535.85691,285.129   L 536.65694,284.80899   L 537.29696,284.48898   L 531.05676,296.96937   z "
     style="fill:#808080;fill-rule:evenodd;fill-opacity:1;stroke:none;" />
  <path
     id="path237"
     d="  M 483.05524,176.96558   L 407.21285,220.32695  "
     style="fill:none;stroke:#808080;stroke-width:2.880091px;stroke-linecap:round;stroke-linejoin:round;stroke-miterlimit:4;stroke-dasharray:none;stroke-opacity:1;" />
  <path
     id="path239"
     d="  M 399.05259,224.9671   L 406.89284,213.44674   L 406.89284,214.24676   L 407.05285,214.88678   L 407.21285,215.68681   L 407.37286,216.48683   L 407.53286,217.12685   L 407.85287,217.92688   L 408.17288,218.5669   L 408.49289,219.20692   L 408.8129,219.84694   L 409.29292,220.48696   L 409.77293,221.12698   L 410.25295,221.767   L 410.73296,222.24701   L 411.21298,222.88703   L 411.853,223.36705   L 412.33301,223.84706   L 412.97303,224.32708   L 399.05259,224.9671   z "
     style="fill:#808080;fill-rule:evenodd;fill-opacity:1;stroke:none;" />
  <path
     id="path241"
     d="  M 195.04616,176.96558   L 270.88855,220.32695  "
     style="fill:none;stroke:#808080;stroke-width:2.880091px;stroke-linecap:round;stroke-linejoin:round;stroke-miterlimit:4;stroke-dasharray:none;stroke-opacity:1;" />
  <path
     id="path243"
     d="  M 279.04881,224.9671   L 265.12837,224.32708   L 265.76839,223.84706   L 266.40841,223.36705   L 266.88842,222.88703   L 267.52844,222.24701   L 268.00846,221.767   L 268.48847,221.12698   L 268.96849,220.48696   L 269.2885,219.84694   L 269.76851,219.20692   L 270.08852,218.5669   L 270.40853,217.92688   L 270.56854,217.12685   L 270.88855,216.48683   L 271.04855,215.68681   L 271.20856,214.88678   L 271.20856,214.24676   L 271.36856,213.44674   L 279.04881,224.9671   z "
     style="fill:#808080;fill-rule:evenodd;fill-opacity:1;stroke:none;" />
  <path
     id="path245"
     d="  M 123.04388,176.96558   L 123.04388,311.52983  "
     style="fill:none;stroke:#808080;stroke-width:2.880091px;stroke-linecap:round;stroke-linejoin:round;stroke-miterlimit:4;stroke-dasharray:none;stroke-opacity:1;" />
  <path
     id="path247"
     d="  M 123.04388,320.97013   L 116.80369,308.48974   L 117.44371,308.80975   L 118.24373,309.12976   L 118.88375,309.44977   L 119.68378,309.60977   L 120.4838,309.76978   L 121.12382,309.92978   L 121.92385,309.92978   L 122.72387,310.08979   L 123.5239,310.08979   L 124.16392,309.92978   L 124.96394,309.92978   L 125.76397,309.76978   L 126.40399,309.60977   L 127.20401,309.44977   L 127.84403,309.12976   L 128.64406,308.80975   L 129.28408,308.48974   L 123.04388,320.97013   z "
     style="fill:#808080;fill-rule:evenodd;fill-opacity:1;stroke:none;" />
  <path
     id="path249"
     d="  M 99.043126,464.65466   L 60.481909,464.65466  "
     style="fill:none;stroke:#808080;stroke-width:2.880091px;stroke-linecap:round;stroke-linejoin:round;stroke-miterlimit:4;stroke-dasharray:none;stroke-opacity:1;" />
  <path
     id="path251"
     d="  M 51.041611,464.65466   L 63.522005,458.41447   L 63.201995,459.05449   L 62.881984,459.85451   L 62.721979,460.49453   L 62.561974,461.29456   L 62.401969,461.93458   L 62.241964,462.7346   L 62.081959,463.53463   L 62.081959,464.33465   L 62.081959,464.97467   L 62.081959,465.7747   L 62.241964,466.57472   L 62.401969,467.21474   L 62.561974,468.01477   L 62.721979,468.81479   L 62.881984,469.45482   L 63.201995,470.25484   L 63.522005,470.89486   L 51.041611,464.65466   z "
     style="fill:#808080;fill-rule:evenodd;fill-opacity:1;stroke:none;" />
  <path
     id="path253"
     d="  M 531.05676,344.97089   L 527.85666,349.77104   M 524.49655,354.41118   L 521.93647,357.9313   L 521.13645,359.05133   M 517.61634,363.53147   L 517.13632,364.17149   L 513.93622,368.01161   M 510.2561,372.33175   L 507.056,376.01187   L 506.41598,376.65189   M 502.41586,380.81202   L 501.77584,381.61204   L 498.41573,384.97215   M 494.4156,389.13228   L 491.37551,391.85237   L 490.09547,392.9724   M 485.77533,396.81252   L 481.29519,400.33263   M 476.65504,403.69274   L 475.85502,404.33276   L 471.85489,407.05285   M 466.89473,410.09294   L 465.9347,410.73296   L 461.77457,412.81303   M 456.65441,415.2131   L 452.33427,416.65315   L 451.21424,416.97316   M 445.61406,418.09319   L 444.49403,418.2532  "
     style="fill:none;stroke:#808080;stroke-width:2.880091px;stroke-linecap:round;stroke-linejoin:round;stroke-miterlimit:4;stroke-dasharray:none;stroke-opacity:1;" />
  <path
     id="path255"
     d="  M 435.05373,416.97316   L 446.57409,424.81341   L 446.41409,424.17339   L 446.25408,423.37336   L 446.09408,422.57334   L 445.93407,421.93332   L 445.93407,421.13329   L 445.93407,420.33326   L 445.93407,419.69324   L 445.93407,418.89322   L 446.09408,418.09319   L 446.25408,417.29317   L 446.41409,416.65315   L 446.57409,415.85312   L 446.8941,415.2131   L 447.21411,414.41308   L 447.53412,413.77306   L 447.85413,413.13304   L 448.33415,412.49302   L 435.05373,416.97316   z "
     style="fill:#808080;fill-rule:evenodd;fill-opacity:1;stroke:none;" />
  <path
     id="path257"
     d="  M 159.04502,176.96558   L 303.68958,385.29216  "
     style="fill:none;stroke:#808080;stroke-width:2.880091px;stroke-linecap:round;stroke-linejoin:round;stroke-miterlimit:4;stroke-dasharray:none;stroke-opacity:1;" />
  <path
     id="path259"
     d="  M 309.12976,392.9724   L 296.80937,386.41219   L 297.60939,386.25219   L 298.24941,386.09218   L 299.04944,385.77217   L 299.84946,385.61217   L 300.48948,385.29216   L 301.1295,384.97215   L 301.76952,384.65214   L 302.40954,384.17212   L 303.04956,383.85211   L 303.68958,383.3721   L 304.3296,382.89208   L 304.80962,382.25206   L 305.28963,381.77205   L 305.76965,381.13203   L 306.24966,380.49201   L 306.72968,379.85199   L 307.04969,379.21197   L 309.12976,392.9724   z "
     style="fill:#808080;fill-rule:evenodd;fill-opacity:1;stroke:none;" />
  <path
     id="path261"
     d="  M 99.043126,477.45507   L 328.33036,477.45507   L 328.33036,451.85426   L 99.043126,451.85426   L 99.043126,477.45507   z "
     style="fill:#ffffff;fill-rule:evenodd;fill-opacity:1;stroke:none;" />
  <text
     id="text267"
     y="0.000000"
     x="0.000000"
     transform="matrix(1.000000,-0.000000,0.000000,1.000000,108.003408,468.654790)"
     style="font-size:13.250000px;font-style:normal;font-variant:normal;font-weight:700;font-stretch:Normal;line-height:125.000000%;letter-spacing:0px;word-spacing:0px;fill:#000000;fill-opacity:1;stroke:none;font-family:Arial;text-align:start;text-anchor:start;"
     xml:space="preserve"><tspan
       id="tspan265"
       y="0.000000"
       x="0.000000"><tspan
         id="tspan263"
         style="fill:#000000;font-size:13.250000px;font-style:normal;font-variant:normal;font-weight:700;font-stretch:Normal;font-family:Arial;"
         dy="0.000000"
         dx="0.000000">dependency (resolved automatic)</tspan></tspan></text>
  <path
     id="path269"
     d="  M 399.05259,465.45469   L 364.3315,465.45469  "
     style="fill:none;stroke:#000000;stroke-width:5.4401717px;stroke-linecap:round;stroke-linejoin:round;stroke-miterlimit:4;stroke-dasharray:none;stroke-opacity:1;" />
  <path
     id="path271"
     d="  M 351.05108,465.45469   L 368.65163,456.65441   L 368.17162,457.61444   L 367.85161,458.57447   L 367.5316,459.69451   L 367.21159,460.65454   L 366.89158,461.77457   L 366.73157,462.7346   L 366.73157,463.85464   L 366.57157,464.97467   L 366.57157,465.9347   L 366.73157,467.05474   L 366.73157,468.17477   L 366.89158,469.13481   L 367.21159,470.25484   L 367.5316,471.21487   L 367.85161,472.33491   L 368.17162,473.29494   L 368.65163,474.25497   L 351.05108,465.45469   z "
     style="fill:#000000;fill-rule:evenodd;fill-opacity:1;stroke:none;" />
  <path
     id="path273"
     d="  M 405.13279,478.25509   L 669.14112,478.25509   L 669.14112,452.65428   L 405.13279,452.65428   L 405.13279,478.25509   z "
     style="fill:#ffffff;fill-rule:evenodd;fill-opacity:1;stroke:none;" />
  <text
     id="text279"
     y="0.000000"
     x="0.000000"
     transform="matrix(1.000000,-0.000000,0.000000,1.000000,410.412952,469.454815)"
     style="font-size:13.250000px;font-style:normal;font-variant:normal;font-weight:700;font-stretch:Normal;line-height:125.000000%;letter-spacing:0px;word-spacing:0px;fill:#000000;fill-opacity:1;stroke:none;font-family:Arial;text-align:start;text-anchor:start;"
     xml:space="preserve"><tspan
       id="tspan277"
       y="0.000000"
       x="0.000000"><tspan
         id="tspan275"
         style="fill:#000000;font-size:13.250000px;font-style:normal;font-variant:normal;font-weight:700;font-stretch:Normal;font-family:Arial;"
         dy="0.000000"
         dx="0.000000">strong dependency (manual interaction)</tspan></tspan></text>
  <path
     id="path281"
     d="  M 752.02373,286.08903   L 748.98364,287.20906  "
     style="fill:none;stroke:#000000;stroke-width:0.3200101px;stroke-linecap:round;stroke-linejoin:round;stroke-miterlimit:4;stroke-dasharray:none;stroke-opacity:1;" />
</svg>
